<?xml version="1.0" encoding="UTF-8"?>
<svg xmlns="http://www.w3.org/2000/svg" width="680" height="380" viewBox="0 0 680 380">
<rect width="680" height="380" fill="white"/>
<style>
  text { font-family: system-ui, sans-serif; }
</style>
<text x="340" y="22" text-anchor="middle" font-size="14" font-weight="bold" fill="#111827">Latence des RPCs gRPC (ms)</text>
<line x1="70" y1="40.0" x2="620" y2="40.0" stroke="#E5E7EB" stroke-width="0.5"/>
<line x1="70" y1="92.0" x2="620" y2="92.0" stroke="#E5E7EB" stroke-width="0.5"/>
<line x1="70" y1="144.0" x2="620" y2="144.0" stroke="#E5E7EB" stroke-width="0.5"/>
<line x1="70" y1="196.0" x2="620" y2="196.0" stroke="#E5E7EB" stroke-width="0.5"/>
<line x1="70" y1="248.0" x2="620" y2="248.0" stroke="#E5E7EB" stroke-width="0.5"/>
<line x1="70" y1="300.0" x2="620" y2="300.0" stroke="#E5E7EB" stroke-width="0.5"/>
<line x1="70.0" y1="40" x2="70.0" y2="300" stroke="#E5E7EB" stroke-width="0.5"/>
<line x1="253.3" y1="40" x2="253.3" y2="300" stroke="#E5E7EB" stroke-width="0.5"/>
<line x1="436.7" y1="40" x2="436.7" y2="300" stroke="#E5E7EB" stroke-width="0.5"/>
<line x1="620.0" y1="40" x2="620.0" y2="300" stroke="#E5E7EB" stroke-width="0.5"/>
<text x="64" y="300.0" text-anchor="end" font-size="10" fill="#6B7280" dominant-baseline="middle">0.00</text>
<text x="64" y="248.0" text-anchor="end" font-size="10" fill="#6B7280" dominant-baseline="middle">1.79</text>
<text x="64" y="196.0" text-anchor="end" font-size="10" fill="#6B7280" dominant-baseline="middle">3.57</text>
<text x="64" y="144.0" text-anchor="end" font-size="10" fill="#6B7280" dominant-baseline="middle">5.36</text>
<text x="64" y="92.0" text-anchor="end" font-size="10" fill="#6B7280" dominant-baseline="middle">7.14</text>
<text x="64" y="40.0" text-anchor="end" font-size="10" fill="#6B7280" dominant-baseline="middle">8.93</text>
<text x="25" y="170" text-anchor="middle" font-size="11" fill="#6B7280" transform="rotate(-90,25,170)">Latence (ms)</text>
<rect x="97.5" y="255.5" width="82.5" height="44.5" fill="#378ADD" opacity="0.7" rx="3"/>
<line x1="138.75" y1="281.0" x2="138.75" y2="63.6" stroke="#378ADD" stroke-width="1.5"/>
<line x1="130.75" y1="281.0" x2="146.75" y2="281.0" stroke="#378ADD" stroke-width="1.5"/>
<line x1="130.75" y1="63.6" x2="146.75" y2="63.6" stroke="#378ADD" stroke-width="1.5"/>
<text x="138.8" y="249.5" text-anchor="middle" font-size="10" fill="#378ADD" font-weight="bold">1.53</text>
<text x="138.8" y="318" text-anchor="middle" font-size="10" fill="#374151">Register</text>
<rect x="235.0" y="279.2" width="82.5" height="20.8" fill="#1D9E75" opacity="0.7" rx="3"/>
<line x1="276.25" y1="285.6" x2="276.25" y2="244.0" stroke="#1D9E75" stroke-width="1.5"/>
<line x1="268.25" y1="285.6" x2="284.25" y2="285.6" stroke="#1D9E75" stroke-width="1.5"/>
<line x1="268.25" y1="244.0" x2="284.25" y2="244.0" stroke="#1D9E75" stroke-width="1.5"/>
<text x="276.2" y="273.2" text-anchor="middle" font-size="10" fill="#1D9E75" font-weight="bold">0.72</text>
<text x="276.2" y="318" text-anchor="middle" font-size="10" fill="#374151">GetModel</text>
<rect x="372.5" y="280.1" width="82.5" height="19.9" fill="#D85A30" opacity="0.7" rx="3"/>
<line x1="413.75" y1="286.6" x2="413.75" y2="252.1" stroke="#D85A30" stroke-width="1.5"/>
<line x1="405.75" y1="286.6" x2="421.75" y2="286.6" stroke="#D85A30" stroke-width="1.5"/>
<line x1="405.75" y1="252.1" x2="421.75" y2="252.1" stroke="#D85A30" stroke-width="1.5"/>
<text x="413.8" y="274.1" text-anchor="middle" font-size="10" fill="#D85A30" font-weight="bold">0.68</text>
<text x="413.8" y="318" text-anchor="middle" font-size="10" fill="#374151">GetStatus</text>
<rect x="510.0" y="280.0" width="82.5" height="20.0" fill="#8B5CF6" opacity="0.7" rx="3"/>
<line x1="551.25" y1="285.9" x2="551.25" y2="266.1" stroke="#8B5CF6" stroke-width="1.5"/>
<line x1="543.25" y1="285.9" x2="559.25" y2="285.9" stroke="#8B5CF6" stroke-width="1.5"/>
<line x1="543.25" y1="266.1" x2="559.25" y2="266.1" stroke="#8B5CF6" stroke-width="1.5"/>
<text x="551.2" y="274.0" text-anchor="middle" font-size="10" fill="#8B5CF6" font-weight="bold">0.69</text>
<text x="551.2" y="318" text-anchor="middle" font-size="10" fill="#374151">Heartbeat</text>
<line x1="70" y1="40" x2="70" y2="300" stroke="#9CA3AF" stroke-width="1"/>
<line x1="70" y1="300" x2="620" y2="300" stroke="#9CA3AF" stroke-width="1"/>
<text x="340" y="365" text-anchor="middle" font-size="10" fill="#6B7280">Barre = moyenne | Trait vertical = [min, max] | 30 mesures par RPC</text>
</svg>