<?xml version="1.0" encoding="UTF-8"?>
<svg xmlns="http://www.w3.org/2000/svg" width="680" height="400" viewBox="0 0 680 400">
<rect width="680" height="400" fill="white"/>
<style>
  text { font-family: system-ui, sans-serif; }
</style>
<text x="340" y="22" text-anchor="middle" font-size="14" font-weight="bold" fill="#111827">Convergence FedAvg — 3 clients hétérogènes</text>
<line x1="70" y1="40.0" x2="620" y2="40.0" stroke="#E5E7EB" stroke-width="0.5"/>
<line x1="70" y1="92.0" x2="620" y2="92.0" stroke="#E5E7EB" stroke-width="0.5"/>
<line x1="70" y1="144.0" x2="620" y2="144.0" stroke="#E5E7EB" stroke-width="0.5"/>
<line x1="70" y1="196.0" x2="620" y2="196.0" stroke="#E5E7EB" stroke-width="0.5"/>
<line x1="70" y1="248.0" x2="620" y2="248.0" stroke="#E5E7EB" stroke-width="0.5"/>
<line x1="70" y1="300.0" x2="620" y2="300.0" stroke="#E5E7EB" stroke-width="0.5"/>
<line x1="70.0" y1="40" x2="70.0" y2="300" stroke="#E5E7EB" stroke-width="0.5"/>
<line x1="180.0" y1="40" x2="180.0" y2="300" stroke="#E5E7EB" stroke-width="0.5"/>
<line x1="290.0" y1="40" x2="290.0" y2="300" stroke="#E5E7EB" stroke-width="0.5"/>
<line x1="400.0" y1="40" x2="400.0" y2="300" stroke="#E5E7EB" stroke-width="0.5"/>
<line x1="510.0" y1="40" x2="510.0" y2="300" stroke="#E5E7EB" stroke-width="0.5"/>
<line x1="620.0" y1="40" x2="620.0" y2="300" stroke="#E5E7EB" stroke-width="0.5"/>
<line x1="70" y1="52.7" x2="620" y2="52.7" stroke="#378ADD" stroke-width="0.8" stroke-dasharray="5 3" opacity="0.5"/>
<line x1="70" y1="176.3" x2="620" y2="176.3" stroke="#1D9E75" stroke-width="0.8" stroke-dasharray="5 3" opacity="0.5"/>
<text x="624" y="52.7" font-size="9" fill="#378ADD" dominant-baseline="middle">w=2.0</text>
<text x="624" y="176.3" font-size="9" fill="#1D9E75" dominant-baseline="middle">b=1.0</text>
<polyline points="70.0,45.7 131.1,47.1 192.2,47.5 253.3,48.0 314.4,48.1 375.6,47.0 436.7,46.5 497.8,45.1 558.9,47.8 620.0,48.3" fill="none" stroke="#378ADD" stroke-width="2" stroke-linejoin="round" stroke-linecap="round"/>
<polyline points="70.0,177.2 131.1,175.6 192.2,172.1 253.3,175.9 314.4,177.8 375.6,173.8 436.7,177.8 497.8,175.2 558.9,177.5 620.0,176.8" fill="none" stroke="#1D9E75" stroke-width="2" stroke-linejoin="round" stroke-linecap="round"/>
<circle cx="70.0" cy="45.7" r="3.5" fill="#378ADD"/>
<circle cx="70.0" cy="177.2" r="3.5" fill="#1D9E75"/>
<circle cx="131.1" cy="47.1" r="3.5" fill="#378ADD"/>
<circle cx="131.1" cy="175.6" r="3.5" fill="#1D9E75"/>
<circle cx="192.2" cy="47.5" r="3.5" fill="#378ADD"/>
<circle cx="192.2" cy="172.1" r="3.5" fill="#1D9E75"/>
<circle cx="253.3" cy="48.0" r="3.5" fill="#378ADD"/>
<circle cx="253.3" cy="175.9" r="3.5" fill="#1D9E75"/>
<circle cx="314.4" cy="48.1" r="3.5" fill="#378ADD"/>
<circle cx="314.4" cy="177.8" r="3.5" fill="#1D9E75"/>
<circle cx="375.6" cy="47.0" r="3.5" fill="#378ADD"/>
<circle cx="375.6" cy="173.8" r="3.5" fill="#1D9E75"/>
<circle cx="436.7" cy="46.5" r="3.5" fill="#378ADD"/>
<circle cx="436.7" cy="177.8" r="3.5" fill="#1D9E75"/>
<circle cx="497.8" cy="45.1" r="3.5" fill="#378ADD"/>
<circle cx="497.8" cy="175.2" r="3.5" fill="#1D9E75"/>
<circle cx="558.9" cy="47.8" r="3.5" fill="#378ADD"/>
<circle cx="558.9" cy="177.5" r="3.5" fill="#1D9E75"/>
<circle cx="620.0" cy="48.3" r="3.5" fill="#378ADD"/>
<circle cx="620.0" cy="176.8" r="3.5" fill="#1D9E75"/>
<line x1="70" y1="40" x2="70" y2="300" stroke="#9CA3AF" stroke-width="1"/>
<line x1="70" y1="300" x2="620" y2="300" stroke="#9CA3AF" stroke-width="1"/>
<text x="64" y="300.0" text-anchor="end" font-size="10" fill="#6B7280" dominant-baseline="middle">0.00</text>
<text x="64" y="248.0" text-anchor="end" font-size="10" fill="#6B7280" dominant-baseline="middle">0.42</text>
<text x="64" y="196.0" text-anchor="end" font-size="10" fill="#6B7280" dominant-baseline="middle">0.84</text>
<text x="64" y="144.0" text-anchor="end" font-size="10" fill="#6B7280" dominant-baseline="middle">1.26</text>
<text x="64" y="92.0" text-anchor="end" font-size="10" fill="#6B7280" dominant-baseline="middle">1.68</text>
<text x="64" y="40.0" text-anchor="end" font-size="10" fill="#6B7280" dominant-baseline="middle">2.10</text>
<text x="70.0" y="314" text-anchor="middle" font-size="10" fill="#6B7280">0</text>
<text x="131.1" y="314" text-anchor="middle" font-size="10" fill="#6B7280">1</text>
<text x="192.2" y="314" text-anchor="middle" font-size="10" fill="#6B7280">2</text>
<text x="253.3" y="314" text-anchor="middle" font-size="10" fill="#6B7280">3</text>
<text x="314.4" y="314" text-anchor="middle" font-size="10" fill="#6B7280">4</text>
<text x="375.6" y="314" text-anchor="middle" font-size="10" fill="#6B7280">5</text>
<text x="436.7" y="314" text-anchor="middle" font-size="10" fill="#6B7280">6</text>
<text x="497.8" y="314" text-anchor="middle" font-size="10" fill="#6B7280">7</text>
<text x="558.9" y="314" text-anchor="middle" font-size="10" fill="#6B7280">8</text>
<text x="620.0" y="314" text-anchor="middle" font-size="10" fill="#6B7280">9</text>
<text x="345" y="372" text-anchor="middle" font-size="11" fill="#374151">Round</text>
<text x="25" y="170" text-anchor="middle" font-size="11" fill="#374151" transform="rotate(-90,25,170)">Valeur du paramètre</text>
<line x1="120" y1="360" x2="144" y2="360" stroke="#378ADD" stroke-width="2"/>
<circle cx="132" cy="360" r="3.5" fill="#378ADD"/>
<text x="150" y="364" font-size="11" fill="#374151">w (cible=2.0)</text>
<line x1="320" y1="360" x2="344" y2="360" stroke="#1D9E75" stroke-width="2"/>
<circle cx="332" cy="360" r="3.5" fill="#1D9E75"/>
<text x="350" y="364" font-size="11" fill="#374151">b (cible=1.0)</text>
<line x1="520" y1="360" x2="544" y2="360" stroke="#9CA3AF" stroke-width="1" stroke-dasharray="5 3"/>
<text x="550" y="364" font-size="11" fill="#6B7280">Cible</text>
</svg>